<?xml version="1.0" encoding="utf-8"?>
<!-- Generator: Adobe Illustrator 22.1.0, SVG Export Plug-In . SVG Version: 6.00 Build 0)  -->
<svg version="1.1" id="Layer_1" xmlns="http://www.w3.org/2000/svg" xmlns:xlink="http://www.w3.org/1999/xlink" x="0px" y="0px"
	 width="350px" height="125px" viewBox="0 0 350 125" style="enable-background:new 0 0 350 125;" xml:space="preserve">
<style type="text/css">
	.st0{fill:#FFFFFF;}
	.st1{fill:#BDBDBD;}
	.st2{fill:#616161;}
	.st3{fill:#97999B;}
	.st4{fill:#424242;}
	.st5{fill:#767475;}
</style>
<path class="st0" d="M14.8,2.7L14.1,2l-3.7,3.6L6.7,2L6,2.7L10.4,7l0,0L14.8,2.7z"/>
<path class="st0" d="M8.6,54.8l-0.7,0.7l3.6,3.7l-3.6,3.7l0.7,0.7l4.3-4.4l0,0L8.6,54.8z"/>
<path d="M14.8,21.8l-0.7-0.7l-3.7,3.6l-3.7-3.6L6,21.8l4.4,4.3l0,0L14.8,21.8z"/>
<path class="st1" d="M14.8,38.4l-0.7-0.7l-3.7,3.6l-3.7-3.6L6,38.4l4.4,4.3l0,0L14.8,38.4z"/>
<path class="st2" d="M197.4,68.4H62l-12,44h147.5L197.4,68.4L197.4,68.4z"/>
<g>
	<path class="st0" d="M55.7,44c-0.6,0-1-0.4-1-1V3.1c0-0.6,0.4-1,1-1h123.7c0.6,0,1,0.4,1,1V43c0,0.6-0.4,1-1,1H55.7z"/>
	<path class="st0" d="M179.4,3v39.9H55.7V3H179.4 M179.4,1H55.7c-1.1,0-2,0.9-2,2v39.9c0,1.1,0.9,2,2,2h123.7c1.1,0,2-0.9,2-2V3
		C181.4,1.9,180.5,1,179.4,1L179.4,1z"/>
</g>
<path class="st3" d="M216.1,45h-38.2L160.1,1h56V45z"/>
<polygon class="st4" points="179.9,45 177.9,45 160.1,1 162.1,1 "/>
<path class="st5" d="M344.1,51.3h-43.7L280,0.9h64.1V51.3z"/>
</svg>
